<?xml version="1.0" standalone="no"?>
<!DOCTYPE svg PUBLIC "-//W3C//DTD SVG 20010904//EN"
 "http://www.w3.org/TR/2001/REC-SVG-20010904/DTD/svg10.dtd">
<svg version="1.0" xmlns="http://www.w3.org/2000/svg"
 width="512.000000pt" height="512.000000pt" viewBox="0 0 512.000000 512.000000"
 preserveAspectRatio="xMidYMid meet">

<g transform="translate(0.000000,512.000000) scale(0.100000,-0.100000)"
fill="#000000" stroke="none">
<path d="M2180 5107 c-47 -24 -49 -56 -17 -311 25 -203 27 -237 16 -261 -21
-42 -56 -63 -149 -89 -127 -35 -260 -89 -398 -162 -132 -69 -172 -78 -214 -45
-13 11 -82 94 -152 185 -136 175 -160 195 -212 176 -39 -15 -512 -486 -531
-529 -24 -56 -7 -77 173 -217 91 -70 174 -139 185 -152 33 -42 24 -82 -45
-214 -73 -138 -127 -271 -162 -398 -26 -93 -47 -128 -89 -149 -24 -11 -58 -9
-261 16 -255 32 -287 30 -311 -17 -18 -36 -18 -724 0 -760 24 -47 56 -49 311
-17 203 25 237 27 261 16 42 -21 63 -55 89 -149 35 -126 89 -260 162 -398 69
-132 78 -172 45 -214 -11 -13 -94 -82 -185 -152 -175 -136 -195 -160 -176
-212 15 -39 486 -512 529 -531 56 -24 77 -7 217 173 70 91 139 174 152 185 42
33 81 24 224 -50 142 -75 251 -119 388 -157 93 -26 128 -47 149 -89 11 -24 9
-58 -16 -261 -32 -255 -30 -287 17 -311 36 -18 724 -18 760 0 47 24 49 56 17
311 -25 203 -27 237 -16 261 21 42 55 63 149 89 124 34 255 87 398 161 135 70
173 78 214 46 13 -11 82 -94 152 -185 140 -180 161 -197 217 -173 43 19 514
492 529 531 19 52 -1 76 -176 212 -91 70 -174 139 -185 152 -33 42 -24 82 45
214 73 137 127 272 162 397 28 99 44 127 88 147 30 15 49 14 267 -14 259 -33
289 -30 309 23 16 41 13 724 -3 755 -24 47 -57 49 -300 18 -122 -16 -236 -26
-254 -23 -40 7 -79 52 -93 108 -32 125 -80 250 -156 403 -89 180 -97 214 -65
256 11 13 94 82 185 152 180 140 197 161 173 217 -19 43 -492 514 -531 529
-52 19 -76 -1 -212 -176 -70 -91 -139 -174 -152 -185 -42 -33 -81 -24 -224 50
-142 75 -251 119 -388 157 -93 26 -128 47 -149 89 -11 24 -9 58 16 261 32 255
30 287 -17 311 -19 10 -114 13 -380 13 -266 0 -361 -3 -380 -13z m620 -174 c0
-10 -10 -99 -22 -198 -20 -170 -20 -183 -5 -236 32 -106 95 -163 232 -204 179
-55 243 -80 395 -159 l155 -80 85 -1 c131 0 168 26 330 238 41 53 77 97 80 97
3 0 82 -76 175 -170 104 -104 166 -173 160 -178 -6 -5 -53 -42 -105 -82 -199
-153 -225 -190 -225 -320 l1 -85 80 -155 c74 -141 99 -205 164 -414 36 -117
98 -183 199 -213 53 -15 66 -15 236 5 99 12 188 22 198 22 16 0 17 -18 17
-240 0 -222 -1 -240 -17 -240 -10 0 -99 10 -198 22 -170 20 -183 20 -236 5
-101 -30 -163 -96 -199 -213 -65 -209 -90 -273 -164 -414 l-80 -155 -1 -85 c0
-130 26 -167 225 -320 52 -40 99 -77 105 -82 6 -5 -56 -74 -160 -178 -93 -94
-172 -170 -175 -170 -3 0 -39 44 -80 97 -162 212 -199 238 -330 238 l-85 -1
-155 -80 c-141 -74 -205 -99 -414 -164 -117 -36 -183 -98 -213 -199 -15 -53
-15 -66 5 -236 12 -99 22 -188 22 -197 0 -17 -18 -18 -240 -18 -222 0 -240 1
-240 18 0 9 10 98 22 197 20 170 20 183 5 236 -30 101 -96 163 -213 199 -209
65 -273 90 -414 164 l-155 80 -85 1 c-131 0 -168 -26 -330 -238 -41 -53 -77
-97 -80 -97 -3 0 -82 76 -175 170 -104 104 -166 173 -160 178 6 5 53 42 105
82 199 153 225 190 225 320 l-1 85 -80 155 c-74 141 -99 205 -164 414 -36 117
-98 183 -199 213 -53 15 -66 15 -236 -5 -99 -12 -188 -22 -197 -22 -17 0 -18
18 -18 240 0 222 1 240 18 240 9 0 98 -10 197 -22 170 -20 183 -20 236 -5 101
30 163 96 199 213 65 209 90 273 164 414 l80 155 1 85 c0 130 -26 167 -225
320 -52 40 -99 77 -105 82 -6 5 56 74 160 178 93 94 172 170 175 170 3 0 39
-44 80 -97 162 -212 199 -238 330 -238 l85 1 155 80 c152 79 216 104 395 159
137 41 200 98 232 204 15 53 15 66 -5 236 -12 99 -22 188 -22 198 0 16 18 17
240 17 222 0 240 -1 240 -17z"/>
<path d="M2352 3735 c-362 -66 -672 -293 -851 -625 -145 -270 -172 -630 -71
-932 115 -344 404 -633 745 -747 246 -82 524 -82 770 0 287 96 549 327 689
607 131 262 153 615 55 907 -96 287 -327 549 -607 689 -78 39 -216 83 -316
101 -107 18 -312 18 -414 0z m460 -183 c186 -50 332 -135 469 -271 136 -136
219 -280 271 -469 18 -65 22 -104 22 -252 0 -192 -11 -253 -74 -403 -93 -224
-313 -444 -537 -537 -150 -63 -211 -74 -403 -74 -192 0 -253 11 -403 74 -224
93 -444 313 -537 537 -63 150 -74 211 -74 403 0 148 4 187 22 252 48 176 130
323 250 449 145 154 321 253 532 300 116 26 349 21 462 -9z"/>
<path d="M2518 3315 c-29 -16 -48 -64 -48 -121 l0 -31 -82 -7 c-145 -12 -258
-86 -310 -203 -59 -132 -22 -295 89 -393 57 -49 126 -76 226 -85 l77 -7 0
-169 0 -169 -143 0 c-136 0 -145 -1 -164 -22 -30 -34 -34 -55 -19 -92 19 -46
55 -56 202 -56 l124 0 0 -32 c0 -66 19 -108 56 -125 31 -16 37 -16 68 0 37 17
56 59 56 123 l0 31 82 7 c145 12 258 86 310 203 59 132 22 295 -89 393 -57 49
-126 76 -225 85 l-78 7 0 169 0 169 143 0 c136 0 145 1 164 23 30 33 34 54 19
91 -19 46 -55 56 -202 56 l-124 0 0 33 c0 60 -19 106 -50 122 -36 18 -47 18
-82 0z m-48 -495 l0 -170 -65 0 c-39 0 -78 6 -95 15 -44 23 -82 79 -87 129
-13 113 70 194 200 196 l47 0 0 -170z m340 -365 c44 -23 82 -79 87 -129 13
-114 -72 -196 -204 -196 l-43 0 0 170 0 170 65 0 c39 0 78 -6 95 -15z"/>
</g>
</svg>
