<?xml version="1.0" standalone="no"?>
<!DOCTYPE svg PUBLIC "-//W3C//DTD SVG 20010904//EN"
 "http://www.w3.org/TR/2001/REC-SVG-20010904/DTD/svg10.dtd">
<svg version="1.0" xmlns="http://www.w3.org/2000/svg"
 width="2048.000000pt" height="2048.000000pt" viewBox="0 0 2048.000000 2048.000000"
 preserveAspectRatio="xMidYMid meet">

<g transform="translate(0.000000,2048.000000) scale(0.100000,-0.100000)"
fill="#000000" stroke="none">
<path d="M2 15478 c0 -2752 4 -4925 9 -4830 49 1125 255 2146 646 3192 676
1808 1876 3413 3421 4574 1144 860 2431 1464 3812 1791 638 150 1233 232 1940
264 91 5 -2084 9 -4832 9 l-4998 2 2 -5002z"/>
<path d="M10635 20469 c1495 -60 2901 -425 4235 -1100 1307 -661 2456 -1597
3378 -2753 614 -768 1118 -1634 1489 -2556 69 -172 218 -580 241 -660 5 -19
31 -102 57 -185 247 -792 397 -1679 434 -2573 5 -97 9 2076 9 4831 l2 5007
-5017 -2 c-2760 0 -4932 -5 -4828 -9z"/>
<path d="M9875 19599 c-2 -3 -40 -5 -83 -4 -61 1 -79 -2 -75 -12 3 -7 0 -13
-6 -13 -6 0 -11 6 -11 13 0 8 -4 7 -10 -3 -9 -13 -10 -13 -10 0 0 13 -1 13
-10 0 -9 -13 -10 -13 -10 0 0 13 -1 13 -10 0 -9 -13 -11 -13 -20 0 -9 13 -10
13 -10 0 0 -13 -1 -13 -10 0 -9 13 -10 13 -10 0 0 -13 -1 -13 -10 0 -5 8 -10
10 -10 4 0 -7 -20 -11 -47 -11 -97 0 -115 -2 -107 -15 6 -10 4 -10 -7 -2 -8 6
-23 9 -34 7 -27 -6 -89 -11 -148 -12 -27 -1 -46 -4 -44 -8 3 -5 -29 -8 -71 -9
-78 0 -322 -34 -322 -44 0 -3 -30 -6 -67 -8 -37 -2 -70 -6 -73 -10 -3 -4 -25
-8 -50 -10 -70 -4 -489 -95 -735 -159 -439 -115 -938 -286 -1335 -458 -215
-93 -613 -286 -775 -375 -33 -18 -80 -44 -105 -58 -85 -46 -359 -207 -410
-242 -14 -9 -50 -33 -80 -52 -100 -64 -194 -127 -245 -163 -27 -20 -68 -48
-90 -63 -72 -48 -358 -264 -433 -326 -41 -34 -87 -70 -103 -82 -56 -41 -385
-331 -498 -439 -123 -119 -352 -351 -472 -480 -143 -154 -475 -549 -539 -641
-8 -12 -48 -66 -89 -120 -110 -145 -293 -414 -406 -594 -12 -19 -38 -61 -58
-92 -20 -32 -37 -60 -37 -63 0 -3 -15 -30 -34 -59 -50 -78 -213 -380 -312
-576 -427 -852 -744 -1848 -879 -2770 -42 -285 -43 -295 -64 -530 -69 -766
-52 -1493 54 -2227 161 -1110 522 -2186 1068 -3183 839 -1532 2161 -2851 3694
-3686 1033 -563 2114 -919 3256 -1073 431 -59 805 -83 1277 -83 872 1 1760
125 2560 358 1383 404 2613 1082 3659 2018 202 180 580 558 757 756 948 1061
1637 2322 2032 3720 313 1107 412 2304 292 3520 -27 269 -115 795 -181 1080
-169 724 -430 1454 -749 2091 -86 172 -261 499 -305 569 -12 19 -39 64 -60
100 -112 190 -341 531 -501 745 -569 766 -1322 1503 -2083 2041 -46 32 -104
74 -130 92 -50 36 -50 36 -196 130 -55 36 -111 72 -125 81 -14 10 -50 32 -80
50 -30 17 -77 46 -105 63 -220 136 -570 321 -870 457 -304 139 -387 173 -735
304 -155 58 -626 208 -745 237 -38 10 -104 27 -145 38 -200 55 -615 142 -825
172 -77 11 -174 25 -215 33 -41 7 -109 13 -152 12 -42 0 -74 3 -71 8 4 6 -17
8 -122 11 -22 0 -42 4 -45 8 -3 4 -54 9 -113 10 -63 2 -107 7 -107 13 0 6 -5
3 -10 -5 -9 -13 -10 -13 -10 0 0 13 -1 13 -10 0 -9 -13 -10 -13 -10 0 0 13 -1
13 -10 0 -9 -13 -11 -13 -20 0 -9 13 -10 13 -10 0 0 -13 -1 -13 -10 0 -9 13
-10 13 -10 0 0 -12 -2 -13 -9 -1 -7 11 -9 11 -14 0 -5 -11 -8 -11 -16 1 -7 12
-29 15 -103 14 -51 0 -97 2 -103 5 -13 7 -676 8 -680 0z m682 -19 c4 -13 3
-13 -6 0 -10 13 -11 13 -11 0 0 -12 -2 -13 -9 -1 -7 11 -10 11 -15 0 -5 -12
-7 -12 -12 0 -5 11 -8 11 -15 0 -7 -12 -9 -11 -9 1 0 13 -1 13 -10 0 -9 -13
-10 -13 -10 0 0 13 -1 13 -11 0 -9 -12 -12 -13 -16 -1 -5 11 -7 11 -14 0 -7
-12 -9 -11 -9 1 0 13 -1 13 -10 0 -9 -13 -10 -13 -10 0 0 13 -1 13 -10 0 -9
-13 -11 -13 -20 0 -9 13 -10 13 -10 0 0 -13 -1 -13 -10 0 -9 13 -10 13 -10 0
0 -13 -1 -13 -11 0 -9 12 -12 13 -16 1 -5 -11 -7 -11 -14 0 -7 12 -9 11 -9 -1
0 -13 -1 -13 -10 0 -9 13 -10 13 -10 0 0 -13 -1 -13 -11 0 -9 12 -12 13 -16 1
-5 -11 -7 -11 -14 0 -7 12 -9 11 -9 -1 0 -13 -1 -13 -10 0 -9 13 -10 13 -10 0
0 -13 -1 -13 -10 0 -9 13 -11 13 -20 0 -9 -13 -10 -13 -10 0 0 13 -1 13 -10 0
-9 -13 -10 -13 -10 0 0 13 -1 13 -11 0 -9 -12 -12 -13 -16 -1 -5 11 -7 11 -14
0 -7 -12 -9 -11 -9 1 0 13 -1 13 -10 0 -9 -13 -10 -13 -10 0 0 13 -1 13 -11 0
-9 -12 -12 -13 -16 -1 -5 11 -7 11 -14 0 -7 -12 -9 -11 -9 1 0 13 -1 13 -10 0
-9 -13 -10 -13 -10 0 0 13 -1 13 -10 0 -9 -13 -11 -13 -20 0 -9 13 -10 13 -10
0 0 -13 -1 -13 -10 0 -9 13 -10 13 -10 0 0 -13 -1 -13 -10 0 -9 13 -11 13 -20
0 -9 -13 -10 -13 -10 0 0 13 -1 13 -10 0 -5 -8 -10 -10 -10 -4 0 6 2 13 4 15
3 2 156 4 342 4 290 0 338 -2 341 -15z m5013 -4321 c0 -248 -97 -790 -217
-1219 -300 -1068 -804 -2182 -1441 -3180 -632 -992 -1361 -1814 -2157 -2431
l-150 -117 -113 -573 c-63 -316 -130 -659 -151 -762 l-37 -188 -855 -855
c-759 -759 -855 -852 -861 -832 -4 13 -48 226 -97 473 -172 859 -322 1600
-327 1618 -5 15 -21 17 -152 17 -228 1 -500 17 -573 34 -85 20 -162 53 -241
107 -70 47 -417 384 -539 523 -166 189 -193 292 -205 778 l-7 267 -51 10 c-28
6 -265 54 -526 106 -261 53 -529 107 -595 119 -254 49 -940 189 -945 193 -2 2
380 388 850 858 572 572 863 856 880 859 14 3 81 17 150 31 69 14 285 57 480
95 195 39 447 88 560 110 113 23 228 45 256 51 50 10 54 13 130 112 466 609
1034 1167 1714 1684 449 341 952 665 1465 943 832 452 1550 751 2405 1003 419
124 998 231 1278 236 l72 1 0 -71z m-9095 -6803 c138 -19 291 -40 340 -47 50
-6 94 -15 99 -20 5 -4 -318 -333 -730 -742 l-739 -735 -3 429 -2 428 349 346
c192 191 357 353 368 360 25 20 37 19 318 -19z m994 -1242 l423 -427 -808
-809 -809 -808 -425 2 -425 3 -3 430 -2 430 802 802 c442 442 808 803 814 803
6 0 201 -192 433 -426z m1176 -586 c5 -45 50 -371 84 -622 l10 -69 -92 -98
c-51 -53 -214 -219 -362 -368 l-270 -271 -426 2 -426 3 730 738 c401 405 733
737 737 737 5 0 11 -24 15 -52z"/>
<path d="M11355 12124 c-11 -3 -51 -12 -90 -21 -91 -20 -233 -84 -309 -138
-190 -135 -336 -368 -367 -584 -14 -102 -6 -302 15 -381 85 -308 311 -536 631
-637 83 -26 102 -28 245 -27 150 0 158 1 261 36 317 105 549 360 613 670 20
96 21 272 2 371 -31 158 -113 313 -235 441 -171 178 -368 264 -621 271 -69 2
-134 2 -145 -1z"/>
<path d="M2 5013 l-2 -5013 5038 2 c2770 0 4938 5 4817 9 -936 32 -1803 186
-2774 491 -488 153 -1192 454 -1684 719 -1845 995 -3344 2529 -4282 4384 -680
1345 -1040 2726 -1104 4240 -4 99 -9 -2076 -9 -4832z"/>
<path d="M20467 9822 c-46 -1372 -404 -2788 -1026 -4067 -710 -1458 -1767
-2737 -3064 -3708 -1300 -973 -2811 -1623 -4407 -1896 -477 -81 -895 -124
-1375 -140 -121 -4 2054 -9 4833 -9 l5052 -2 0 5010 c0 2756 -2 5010 -3 5010
-2 0 -7 -89 -10 -198z"/>
</g>
</svg>
